<?xml version="1.0" encoding="utf-8"?>
<!-- Generator: Adobe Illustrator 15.0.0, SVG Export Plug-In . SVG Version: 6.00 Build 0)  -->
<!DOCTYPE svg PUBLIC "-//W3C//DTD SVG 1.1//EN" "http://www.w3.org/Graphics/SVG/1.1/DTD/svg11.dtd">
<svg version="1.1" id="Layer_1" xmlns="http://www.w3.org/2000/svg" xmlns:xlink="http://www.w3.org/1999/xlink" x="0px" y="0px"
	 width="50px" height="50px" viewBox="0 0 50 50" enable-background="new 0 0 50 50" xml:space="preserve">
<g>
	<g id="backgroud_stroke" opacity="0.25">
		<path fill="#FFFFFF" d="M42.314,1c2.26,0,3.923,0.551,4.991,1.652C48.374,3.753,48.938,5.618,49,8.249v33.502
			c-0.062,2.63-0.626,4.496-1.694,5.597S44.574,49,42.315,49H7.686c-2.26,0-3.923-0.552-4.992-1.652
			C1.625,46.247,1.062,44.381,1,41.751V8.249c0.062-2.631,0.625-4.496,1.693-5.597C3.763,1.551,5.426,1,7.685,1H42.314 M42.314,0
			H7.685C5.156,0,3.236,0.658,1.976,1.956C0.715,3.255,0.068,5.306,0,8.226l0,33.525c0.068,2.943,0.715,4.994,1.976,6.293
			C3.237,49.342,5.158,50,7.686,50h34.63c2.527,0,4.448-0.658,5.708-1.956c1.262-1.3,1.908-3.351,1.977-6.27V8.249
			c-0.068-2.942-0.715-4.993-1.977-6.293C46.765,0.658,44.844,0,42.314,0L42.314,0z"/>
	</g>
	<g id="backgroud_colour" opacity="0.05">
		<path fill="#FFFFFF" d="M49,8.249c-0.062-2.631-0.626-4.496-1.694-5.597C46.237,1.551,44.574,1,42.314,1H7.685
			C5.426,1,3.763,1.551,2.693,2.652C1.625,3.753,1.062,5.618,1,8.249v33.502c0.062,2.63,0.625,4.496,1.693,5.597
			C3.763,48.448,5.426,49,7.686,49h34.63c2.259,0,3.922-0.552,4.99-1.652s1.633-2.967,1.694-5.597V8.249z"/>
	</g>
</g>
<g opacity="0.25">
	<g opacity="0.6">
		<path fill="#333333" d="M21.108,12l0.913,0.696c-0.282,0.31-0.49,0.642-0.627,0.976c0.458-0.253,1.01-0.48,1.679-0.607
			c0.59-0.112,1.298-0.171,1.954-0.171c0.655,0,1.363,0.059,1.954,0.171c1.468,0.277,2.443,1.019,2.85,1.528
			c0.571,0.085,1.493,0.218,2.282,0.849c1.059,0.849,2.036,2.379,2.036,5.012c0,1.869-0.162,2.974-0.162,3.654
			c0,0.762,1.024,0.822,1.188,1.671c0.227,1.192-0.455,3.933-1.188,5.292c-0.451,0.832-1.397,1.204-2.036,1.951
			c-0.654,0.766-0.975,1.85-0.975,3.357c0,2.775,0.924,3.53,4.194,5.04c3.17,1.465,5.445,2.541,6.89,3.417
			C44.376,46.24,44.367,48,43.34,48H6.713c-1.15,0-1.037-1.76,1.28-3.162c1.445-0.876,3.718-1.952,6.888-3.417
			c3.271-1.51,4.194-2.265,4.194-5.04c0-1.508-0.32-2.592-0.974-3.357c-0.638-0.747-1.585-1.119-2.036-1.951
			c-0.734-1.359-1.417-4.101-1.189-5.292c0.164-0.85,1.189-0.91,1.189-1.671c0-0.68-0.163-1.785-0.163-3.654
			c0-2.633,0.977-4.163,2.037-5.012c0.532-0.426,1.117-0.617,1.622-0.727c-0.449-0.121-0.955-0.188-1.545-0.188v-1.089
			c0.8,0,1.501,0.093,2.114,0.292C20.293,13.128,20.626,12.534,21.108,12 M21.108,11c-0.274,0-0.546,0.112-0.743,0.33
			c-0.344,0.381-0.629,0.795-0.847,1.226c-0.461-0.078-0.958-0.117-1.501-0.117c-0.552,0-1,0.448-1,1v1.089
			c0,0.119,0.021,0.232,0.059,0.337c-1.042,0.933-2.172,2.628-2.172,5.589c0,1.202,0.065,2.103,0.113,2.76
			c0.023,0.32,0.042,0.583,0.048,0.79c-0.045,0.039-0.108,0.088-0.159,0.128c-0.321,0.251-0.859,0.671-1.011,1.458
			c-0.279,1.46,0.479,4.452,1.291,5.957c0.363,0.671,0.912,1.092,1.396,1.463c0.288,0.221,0.559,0.429,0.759,0.663
			c0.494,0.579,0.734,1.465,0.734,2.708c0,2.165-0.439,2.667-3.613,4.132c-3.013,1.393-5.44,2.532-6.988,3.47
			c-1.805,1.094-2.75,2.594-2.408,3.821C5.27,48.53,5.916,49,6.713,49H43.34c0.765,0,1.389-0.468,1.591-1.193
			c0.265-0.946-0.193-2.517-2.354-3.824c-1.54-0.935-3.971-2.075-6.987-3.47c-3.175-1.465-3.614-1.967-3.614-4.132
			c0-1.243,0.24-2.129,0.734-2.708c0.201-0.234,0.473-0.442,0.76-0.663c0.484-0.371,1.033-0.792,1.396-1.461
			c0.812-1.506,1.569-4.497,1.292-5.956c-0.152-0.79-0.689-1.21-1.011-1.461c-0.051-0.04-0.113-0.089-0.159-0.128
			c0.006-0.207,0.024-0.47,0.048-0.79c0.048-0.657,0.113-1.558,0.113-2.76c0-3.189-1.311-4.91-2.41-5.792
			c-0.831-0.665-1.765-0.893-2.406-1.002c-0.635-0.63-1.723-1.305-3.166-1.577c-0.642-0.122-1.401-0.188-2.139-0.188
			c-0.739,0-1.5,0.067-2.14,0.188c-0.022,0.004-0.044,0.008-0.066,0.013c-0.055-0.073-0.12-0.138-0.193-0.194l-0.913-0.696
			C21.534,11.067,21.32,11,21.108,11L21.108,11z"/>
	</g>
	<g>
		<path fill="#DBDADA" d="M42.06,44.838c-1.444-0.876-3.72-1.952-6.89-3.417c-3.271-1.51-4.194-2.265-4.194-5.04
			c0-1.508,0.32-2.592,0.975-3.357c0.639-0.747,1.585-1.119,2.036-1.951c0.733-1.359,1.415-4.101,1.188-5.292
			c-0.164-0.85-1.188-0.91-1.188-1.671c0-0.68,0.162-1.785,0.162-3.654c0-2.633-0.978-4.163-2.036-5.012
			c-0.789-0.631-1.711-0.764-2.282-0.849c-0.406-0.509-1.382-1.251-2.85-1.528c-0.591-0.112-1.299-0.171-1.954-0.171
			c-0.656,0-1.364,0.059-1.954,0.171c-0.669,0.126-1.222,0.354-1.679,0.607c0.137-0.334,0.345-0.667,0.627-0.976L21.108,12
			c-0.482,0.534-0.815,1.128-0.977,1.731c-0.612-0.199-1.313-0.292-2.114-0.292v1.089c0.591,0,1.096,0.067,1.545,0.188
			c-0.505,0.11-1.09,0.301-1.622,0.727c-1.06,0.849-2.037,2.379-2.037,5.012c0,1.869,0.163,2.974,0.163,3.654
			c0,0.762-1.025,0.822-1.189,1.671c-0.228,1.192,0.455,3.933,1.189,5.292c0.451,0.832,1.398,1.204,2.036,1.951
			c0.653,0.766,0.974,1.85,0.974,3.357c0,2.775-0.922,3.53-4.194,5.04c-3.17,1.465-5.443,2.541-6.888,3.417
			C5.677,46.24,5.563,48,6.713,48H43.34C44.367,48,44.376,46.24,42.06,44.838z"/>
	</g>
</g>
</svg>
