<?xml version="1.0" encoding="utf-8"?>
<!-- Generator: Adobe Illustrator 15.0.0, SVG Export Plug-In . SVG Version: 6.00 Build 0)  -->
<!DOCTYPE svg PUBLIC "-//W3C//DTD SVG 1.1//EN" "http://www.w3.org/Graphics/SVG/1.1/DTD/svg11.dtd">
<svg version="1.1" id="Layer_1" xmlns="http://www.w3.org/2000/svg" xmlns:xlink="http://www.w3.org/1999/xlink" x="0px" y="0px"
	 width="34px" height="34px" viewBox="0 0 34 34" enable-background="new 0 0 34 34" xml:space="preserve">
<path opacity="0.6" fill="#43413E" d="M17.996,8.006h0.005 M17.996,8.006l-0.022,9.04l5.643,5.647l-1.444,1.443l-6.205-6.224V8.006
	H17.996 M18.999,7.006h-1.003h-2.029h-1v1v9.907v0.413l0.292,0.293l6.205,6.224l0.707,0.709l0.708-0.708l1.444-1.443l0.707-0.706
	l-0.707-0.708l-5.349-5.354l0.021-8.625L18.999,7.006L18.999,7.006z"/>
<polygon fill="#DBDADA" points="17.996,8.006 15.967,8.006 15.967,17.913 22.172,24.137 23.616,22.693 17.974,17.046 "/>
<path opacity="0.6" fill="#43413E" d="M17,0.993c8.841,0,16.008,7.167,16.008,16.008c0,8.84-7.167,16.008-16.008,16.008
	S0.992,25.842,0.992,17.001C0.992,8.16,8.159,0.993,17,0.993 M17,30.015c7.188,0,13.014-5.823,13.014-13.013
	c0-7.186-5.826-13.013-13.014-13.013S3.986,9.815,3.986,17.001C3.986,24.191,9.812,30.015,17,30.015 M17,0.001
	c-9.374,0-17,7.626-17,17c0,9.375,7.626,17,17,17c9.374,0,17-7.626,17-17C34,7.627,26.374,0.001,17,0.001L17,0.001z M17,29.015
	c-6.625,0-12.014-5.389-12.014-12.013c0-6.624,5.389-12.013,12.014-12.013c6.624,0,12.014,5.389,12.014,12.013
	C29.014,23.626,23.624,29.015,17,29.015L17,29.015z"/>
<path fill="#DBDADA" d="M17,0.993c-8.841,0-16.008,7.167-16.008,16.008c0,8.84,7.167,16.008,16.008,16.008
	s16.008-7.168,16.008-16.008C33.008,8.16,25.841,0.993,17,0.993z M17,30.015c-7.188,0-13.014-5.823-13.014-13.013
	C3.986,9.815,9.812,3.988,17,3.988s13.014,5.827,13.014,13.013C30.014,24.191,24.188,30.015,17,30.015z"/>
</svg>
