<?xml version="1.0" encoding="utf-8"?>
<!-- Generator: Adobe Illustrator 15.0.0, SVG Export Plug-In . SVG Version: 6.00 Build 0)  -->
<!DOCTYPE svg PUBLIC "-//W3C//DTD SVG 1.1//EN" "http://www.w3.org/Graphics/SVG/1.1/DTD/svg11.dtd">
<svg version="1.1" id="Layer_1" xmlns="http://www.w3.org/2000/svg" xmlns:xlink="http://www.w3.org/1999/xlink" x="0px" y="0px"
	 width="50px" height="50px" viewBox="0 0 50 50" enable-background="new 0 0 50 50" xml:space="preserve">
<g>
	<g id="backgroud_stroke" opacity="0.25">
		<path fill="#FFFFFF" d="M42.314,1c2.26,0,3.923,0.551,4.991,1.652C48.374,3.753,48.938,5.618,49,8.249v33.502
			c-0.062,2.63-0.626,4.496-1.694,5.597S44.574,49,42.315,49H7.686c-2.26,0-3.923-0.552-4.992-1.652
			C1.625,46.247,1.062,44.381,1,41.751V8.249c0.062-2.631,0.625-4.496,1.693-5.597C3.763,1.551,5.426,1,7.685,1H42.314 M42.314,0
			H7.685C5.156,0,3.236,0.658,1.976,1.956C0.715,3.255,0.068,5.306,0,8.226l0,33.525c0.068,2.943,0.715,4.994,1.976,6.293
			C3.237,49.342,5.158,50,7.686,50h34.63c2.527,0,4.448-0.658,5.708-1.956c1.262-1.3,1.908-3.351,1.977-6.27V8.249
			c-0.068-2.942-0.715-4.993-1.977-6.293C46.765,0.658,44.844,0,42.314,0L42.314,0z"/>
	</g>
	<g id="backgroud_colour" opacity="0.05">
		<path fill="#FFFFFF" d="M49,8.249c-0.062-2.631-0.626-4.496-1.694-5.597C46.237,1.551,44.574,1,42.314,1H7.685
			C5.426,1,3.763,1.551,2.693,2.652C1.625,3.753,1.062,5.618,1,8.249v33.502c0.062,2.63,0.625,4.496,1.693,5.597
			C3.763,48.448,5.426,49,7.686,49h34.63c2.259,0,3.922-0.552,4.99-1.652s1.633-2.967,1.694-5.597V8.249z"/>
	</g>
</g>
<g opacity="0.25">
	<g opacity="0.6">
		<path fill="#333333" d="M9.15,15l0.922,0.708c-0.213,0.237-0.377,0.487-0.509,0.741c0.277-0.123,0.579-0.232,0.931-0.3
			c0.46-0.09,1.014-0.138,1.526-0.138s1.066,0.048,1.527,0.138c1.147,0.223,1.909,0.821,2.227,1.231
			c0.446,0.068,1.167,0.176,1.783,0.685c0.827,0.684,1.591,1.916,1.591,4.039c0,1.505-0.126,2.396-0.126,2.943
			c0,0.614,0.801,0.662,0.929,1.348c0.178,0.96-0.355,3.169-0.929,4.264c-0.353,0.672-1.093,0.971-1.591,1.574
			c-0.511,0.615-1.028,1.137-1.028,2.247c0,2.042,0.68,2.597,3.089,3.71c2.334,1.076,4.01,1.869,5.073,2.514
			c1.313,0.794,1.61,5.273,1.332,7.297H7.686c-1.967,0-3.405-0.454-4.275-1.35C2.53,45.743,2.055,44.087,2,41.728v-2.344
			c0.742-0.357,1.583-0.75,2.548-1.194c2.409-1.113,3.088-1.668,3.088-3.71c0-1.11-0.517-1.632-1.027-2.247
			c-0.499-0.604-1.238-0.902-1.591-1.574c-0.573-1.095-1.106-3.304-0.929-4.264c0.128-0.686,0.929-0.733,0.929-1.348
			c0-0.548-0.127-1.438-0.127-2.943c0-2.123,0.764-3.354,1.592-4.039c0.22-0.182,0.452-0.3,0.682-0.396
			c-0.347-0.06-0.72-0.096-1.139-0.096v-1.109c0.809,0,1.518,0.095,2.135,0.298C8.326,16.148,8.663,15.542,9.15,15 M9.15,14
			c-0.275,0-0.548,0.113-0.745,0.332c-0.349,0.388-0.638,0.811-0.858,1.251c-0.467-0.08-0.971-0.12-1.521-0.12c-0.552,0-1,0.448-1,1
			v1.109c0,0.162,0.039,0.315,0.107,0.451c-0.663,0.838-1.243,2.129-1.243,4.08c0,0.974,0.051,1.703,0.089,2.235
			c0.015,0.21,0.028,0.39,0.035,0.545c-0.017,0.013-0.033,0.025-0.049,0.039c-0.272,0.219-0.728,0.587-0.859,1.288
			c-0.247,1.331,0.443,3.797,1.025,4.911c0.303,0.577,0.75,0.931,1.144,1.243c0.216,0.17,0.419,0.331,0.562,0.504l0.124,0.148
			c0.435,0.517,0.674,0.802,0.674,1.462c0,1.416-0.17,1.722-2.508,2.802c-0.97,0.447-1.816,0.842-2.563,1.201
			C1.22,38.649,1,39,1,39.384v2.344c0.062,2.68,0.616,4.51,1.694,5.619C3.758,48.444,5.438,49,7.686,49h18.21
			c0.5,0,0.923-0.369,0.99-0.863c0.202-1.466,0.264-7.039-1.804-8.289c-1.052-0.638-2.629-1.394-5.172-2.566
			c-2.337-1.08-2.508-1.386-2.508-2.802c0-0.659,0.239-0.944,0.674-1.461l0.124-0.147c0.145-0.175,0.348-0.336,0.563-0.507
			c0.394-0.312,0.841-0.665,1.144-1.241c0.583-1.114,1.272-3.58,1.026-4.91c-0.131-0.703-0.587-1.071-0.859-1.29
			c-0.016-0.014-0.033-0.026-0.049-0.039c0.006-0.155,0.02-0.335,0.034-0.545c0.037-0.532,0.088-1.261,0.088-2.235
			c0-2.64-1.062-4.072-1.954-4.809c-0.661-0.546-1.392-0.746-1.914-0.844c-0.529-0.52-1.401-1.062-2.542-1.283
			c-0.516-0.101-1.126-0.156-1.718-0.156c-0.392,0-0.792,0.024-1.168,0.07c-0.049-0.062-0.106-0.118-0.17-0.167l-0.922-0.708
			C9.578,14.068,9.364,14,9.15,14L9.15,14z"/>
	</g>
	<path fill="#DBDADA" d="M7.686,48h18.21c0.278-2.023-0.019-6.503-1.332-7.297c-1.063-0.645-2.739-1.438-5.073-2.514
		c-2.409-1.113-3.089-1.668-3.089-3.71c0-1.11,0.518-1.632,1.028-2.247c0.498-0.604,1.238-0.902,1.591-1.574
		c0.573-1.095,1.106-3.304,0.929-4.264c-0.128-0.686-0.929-0.733-0.929-1.348c0-0.548,0.126-1.438,0.126-2.943
		c0-2.123-0.764-3.354-1.591-4.039c-0.616-0.509-1.337-0.616-1.783-0.685c-0.317-0.411-1.079-1.008-2.227-1.231
		c-0.461-0.09-1.015-0.138-1.527-0.138s-1.066,0.048-1.526,0.138c-0.352,0.068-0.653,0.178-0.931,0.3
		c0.132-0.254,0.296-0.504,0.509-0.741L9.15,15c-0.487,0.542-0.824,1.148-0.988,1.762c-0.618-0.203-1.326-0.298-2.135-0.298v1.109
		c0.418,0,0.792,0.036,1.139,0.096c-0.23,0.096-0.462,0.214-0.682,0.396c-0.829,0.684-1.592,1.916-1.592,4.039
		c0,1.505,0.127,2.396,0.127,2.943c0,0.614-0.801,0.662-0.929,1.348c-0.178,0.96,0.356,3.169,0.929,4.264
		c0.353,0.672,1.092,0.971,1.591,1.574c0.511,0.615,1.027,1.137,1.027,2.247c0,2.042-0.679,2.597-3.088,3.71
		C3.583,38.634,2.742,39.026,2,39.384v2.344c0.055,2.359,0.53,4.016,1.411,4.923C4.28,47.546,5.719,48,7.686,48z"/>
</g>
<g opacity="0.5">
	<g opacity="0.6">
		<path fill="#333333" d="M37,16c4.131,0,5.979,1.606,7.113,4.41c1.227,3.031,1.043,7.244,0.012,10.594
			c-0.314,1.02,0.117,1.66,0.867,1.973c-0.75,0.75-2.015,1.381-2.992,1.393c0.25,0.625,1,1.197,2.465,1.973
			c1.395,0.739,2.577,1.215,3.535,1.622v3.787c-0.055,2.335-0.53,3.991-1.412,4.9C45.72,47.546,44.282,48,42.315,48H23.129
			c-0.354-2.417-0.028-8.476,1.333-9.299c1.064-0.645,2.803-1.154,5.073-2.359c1.464-0.775,2.215-1.348,2.465-1.973
			c-1.032-0.062-2.293-0.643-3.043-1.393c0.75-0.312,1.14-0.975,0.887-2.004c-0.985-3.996-1.195-7.566,0.043-10.562
			C30.974,17.78,32.868,16,37,16 M37,15c-4.066,0-6.62,1.598-8.037,5.028c-1.217,2.944-1.245,6.497-0.09,11.184
			c0.159,0.649-0.106,0.761-0.301,0.842c-0.308,0.128-0.531,0.401-0.597,0.729c-0.064,0.327,0.038,0.666,0.274,0.901
			c0.488,0.488,1.129,0.907,1.812,1.205c-0.277,0.175-0.609,0.364-0.995,0.569c-1.164,0.618-2.171,1.042-3.06,1.415
			c-0.805,0.339-1.501,0.632-2.064,0.973c-2.093,1.266-2.093,8.329-1.804,10.299C22.211,48.636,22.632,49,23.129,49h19.187
			c2.247,0,3.926-0.556,4.99-1.652c1.063-1.096,1.633-2.972,1.694-5.573v-3.811c0-0.401-0.239-0.764-0.608-0.92L48,36.878
			c-0.888-0.374-1.895-0.798-3.066-1.42c-0.388-0.205-0.721-0.396-0.998-0.57c0.65-0.297,1.274-0.715,1.764-1.204
			c0.236-0.235,0.339-0.574,0.274-0.901c-0.065-0.327-0.289-0.601-0.597-0.729c-0.324-0.136-0.444-0.276-0.296-0.755
			c0.943-3.065,1.428-7.634-0.041-11.264C43.631,16.553,41.151,15,37,15L37,15z"/>
	</g>
	<path fill="#DBDADA" d="M48,37.964c-0.958-0.407-2.141-0.883-3.535-1.622C43,35.566,42.25,34.994,42,34.369
		c0.978-0.012,2.242-0.643,2.992-1.393c-0.75-0.312-1.182-0.953-0.867-1.973c1.031-3.35,1.215-7.562-0.012-10.594
		C42.979,17.606,41.131,16,37,16c-4.132,0-6.026,1.78-7.113,4.41c-1.238,2.996-1.028,6.566-0.043,10.562
		c0.253,1.029-0.137,1.691-0.887,2.004c0.75,0.75,2.011,1.33,3.043,1.393c-0.25,0.625-1.001,1.197-2.465,1.973
		c-2.271,1.205-4.009,1.715-5.073,2.359c-1.361,0.823-1.687,6.882-1.333,9.299h19.187c1.967,0,3.404-0.454,4.272-1.349
		c0.882-0.909,1.357-2.565,1.412-4.9V37.964z"/>
</g>
<g>
	<g opacity="0.6">
		<path fill="#333333" d="M21.108,12l0.913,0.696c-0.282,0.31-0.49,0.642-0.627,0.976c0.458-0.253,1.01-0.48,1.679-0.607
			c0.59-0.112,1.298-0.171,1.954-0.171c0.655,0,1.363,0.059,1.954,0.171c1.468,0.277,2.443,1.019,2.85,1.528
			c0.571,0.085,1.493,0.218,2.282,0.849c1.059,0.849,2.036,2.379,2.036,5.012c0,1.869-0.162,2.974-0.162,3.654
			c0,0.762,1.024,0.822,1.188,1.671c0.227,1.192-0.455,3.933-1.188,5.292c-0.451,0.832-1.397,1.204-2.036,1.951
			c-0.654,0.766-0.975,1.85-0.975,3.357c0,2.775,0.924,3.53,4.194,5.04c3.17,1.465,5.445,2.541,6.89,3.417
			C44.376,46.24,44.367,48,43.34,48H6.713c-1.15,0-1.037-1.76,1.28-3.162c1.445-0.876,3.718-1.952,6.888-3.417
			c3.271-1.51,4.194-2.265,4.194-5.04c0-1.508-0.32-2.592-0.974-3.357c-0.638-0.747-1.585-1.119-2.036-1.951
			c-0.734-1.359-1.417-4.101-1.189-5.292c0.164-0.85,1.189-0.91,1.189-1.671c0-0.68-0.163-1.785-0.163-3.654
			c0-2.633,0.977-4.163,2.037-5.012c0.532-0.426,1.117-0.617,1.622-0.727c-0.449-0.121-0.955-0.188-1.545-0.188v-1.089
			c0.8,0,1.501,0.093,2.114,0.292C20.293,13.128,20.626,12.534,21.108,12 M21.108,11c-0.274,0-0.546,0.112-0.743,0.33
			c-0.344,0.381-0.629,0.795-0.847,1.226c-0.461-0.078-0.958-0.117-1.501-0.117c-0.552,0-1,0.448-1,1v1.089
			c0,0.119,0.021,0.232,0.059,0.337c-1.042,0.933-2.172,2.628-2.172,5.589c0,1.202,0.065,2.103,0.113,2.76
			c0.023,0.32,0.042,0.583,0.048,0.79c-0.045,0.039-0.108,0.088-0.159,0.128c-0.321,0.251-0.859,0.671-1.011,1.458
			c-0.279,1.46,0.479,4.452,1.291,5.957c0.363,0.671,0.912,1.092,1.396,1.463c0.288,0.221,0.559,0.429,0.759,0.663
			c0.494,0.579,0.734,1.465,0.734,2.708c0,2.165-0.439,2.667-3.613,4.132c-3.013,1.393-5.44,2.532-6.988,3.47
			c-1.805,1.094-2.75,2.594-2.408,3.821C5.27,48.53,5.916,49,6.713,49H43.34c0.765,0,1.389-0.468,1.591-1.193
			c0.265-0.946-0.193-2.517-2.354-3.824c-1.54-0.935-3.971-2.075-6.987-3.47c-3.175-1.465-3.614-1.967-3.614-4.132
			c0-1.243,0.24-2.129,0.734-2.708c0.201-0.234,0.473-0.442,0.76-0.663c0.484-0.371,1.033-0.792,1.396-1.461
			c0.812-1.506,1.569-4.497,1.292-5.956c-0.152-0.79-0.689-1.21-1.011-1.461c-0.051-0.04-0.113-0.089-0.159-0.128
			c0.006-0.207,0.024-0.47,0.048-0.79c0.048-0.657,0.113-1.558,0.113-2.76c0-3.189-1.311-4.91-2.41-5.792
			c-0.831-0.665-1.765-0.893-2.406-1.002c-0.635-0.63-1.723-1.305-3.166-1.577c-0.642-0.122-1.401-0.188-2.139-0.188
			c-0.739,0-1.5,0.067-2.14,0.188c-0.022,0.004-0.044,0.008-0.066,0.013c-0.055-0.073-0.12-0.138-0.193-0.194l-0.913-0.696
			C21.534,11.067,21.32,11,21.108,11L21.108,11z"/>
	</g>
	<g>
		<path fill="#DBDADA" d="M42.06,44.838c-1.444-0.876-3.72-1.952-6.89-3.417c-3.271-1.51-4.194-2.265-4.194-5.04
			c0-1.508,0.32-2.592,0.975-3.357c0.639-0.747,1.585-1.119,2.036-1.951c0.733-1.359,1.415-4.101,1.188-5.292
			c-0.164-0.85-1.188-0.91-1.188-1.671c0-0.68,0.162-1.785,0.162-3.654c0-2.633-0.978-4.163-2.036-5.012
			c-0.789-0.631-1.711-0.764-2.282-0.849c-0.406-0.509-1.382-1.251-2.85-1.528c-0.591-0.112-1.299-0.171-1.954-0.171
			c-0.656,0-1.364,0.059-1.954,0.171c-0.669,0.126-1.222,0.354-1.679,0.607c0.137-0.334,0.345-0.667,0.627-0.976L21.108,12
			c-0.482,0.534-0.815,1.128-0.977,1.731c-0.612-0.199-1.313-0.292-2.114-0.292v1.089c0.591,0,1.096,0.067,1.545,0.188
			c-0.505,0.11-1.09,0.301-1.622,0.727c-1.06,0.849-2.037,2.379-2.037,5.012c0,1.869,0.163,2.974,0.163,3.654
			c0,0.762-1.025,0.822-1.189,1.671c-0.228,1.192,0.455,3.933,1.189,5.292c0.451,0.832,1.398,1.204,2.036,1.951
			c0.653,0.766,0.974,1.85,0.974,3.357c0,2.775-0.922,3.53-4.194,5.04c-3.17,1.465-5.443,2.541-6.888,3.417
			C5.677,46.24,5.563,48,6.713,48H43.34C44.367,48,44.376,46.24,42.06,44.838z"/>
	</g>
</g>
</svg>
